<?xml version="1.0" encoding="UTF-8"?>
<svg width="1920px" height="1080px" viewBox="0 0 1920 1080" version="1.1" xmlns="http://www.w3.org/2000/svg" xmlns:xlink="http://www.w3.org/1999/xlink">
    <!-- Generator: Sketch 47.1 (45422) - http://www.bohemiancoding.com/sketch -->
    <title>highlight</title>
    <desc>Created with Sketch.</desc>
    <defs>
        <style type="text/css">
            @import url('https://fonts.googleapis.com/css?family=Roboto:100');
        </style>
    </defs>
    <g id="Page-1" stroke="none" stroke-width="1" fill="none" fill-rule="evenodd">
        <g id="highlight">
            <rect id="Rectangle-path" fill="#FFFFFF" fill-rule="nonzero" x="0" y="0" width="1920" height="1080"></rect>
            <text id="$PLACEHOLDER__BODY_LINE_1" fill="#000000" font-family="Roboto" font-size="90" font-weight="100">
                <tspan x="105" y="402.26125">$PLACEHOLDER__BODY_LINE_1</tspan>
            </text>
            <text id="$PLACEHOLDER__BODY_LINE_2" fill="#000000" font-family="Roboto" font-size="90" font-weight="100">
                <tspan x="105" y="514.76125">$PLACEHOLDER__BODY_LINE_2</tspan>
            </text>
            <text id="$PLACEHOLDER__BODY_LINE_3" fill="#000000" font-family="Roboto" font-size="90" font-weight="100">
                <tspan x="105" y="627.26125">$PLACEHOLDER__BODY_LINE_3</tspan>
            </text>
            <text id="$PLACEHOLDER__BODY_LINE_4" fill="#000000" font-family="Roboto" font-size="90" font-weight="100">
                <tspan x="105" y="739.76125">$PLACEHOLDER__BODY_LINE_4</tspan>
            </text>
            <polygon id="Shape" fill="#7350FF" fill-rule="nonzero" points="288.564375 117.349875 288.564375 125.853562 276.39 125.853562 276.39 161.523937 265.48125 161.523937 265.48125 125.837437 253.438125 125.837437 253.438125 117.333562 288.564375 117.333562"></polygon>
            <path d="M309.21,128.157187 C311.35125,126.907688 313.6575,126.291 316.1625,126.291 L316.1625,137.71575 L313.048125,137.71575 C310.164375,137.71575 307.940625,138.316312 306.358125,139.533375 C304.7775,140.734313 303.98625,142.779188 303.98625,145.651687 L303.98625,161.523188 L293.145,161.523188 L293.145,126.648 L303.98625,126.648 L303.98625,133.220438 C305.338125,131.094563 307.066875,129.406875 309.21,128.157187 Z" id="Shape" fill="#7350FF" fill-rule="nonzero"></path>
            <path d="M355.921875,126.648 L355.921875,161.506875 L345.013125,161.506875 L345.013125,155.193938 C343.99125,157.238812 342.493125,158.861625 340.483125,160.062562 C338.473125,161.2635 336.133125,161.880188 333.48,161.880188 C329.42625,161.880188 326.1975,160.5495 323.80875,157.887937 C321.42,155.226375 320.233125,151.558875 320.233125,146.885063 L320.233125,126.648 L331.00875,126.648 L331.00875,145.5705 C331.00875,147.93975 331.635,149.789812 332.8875,151.104375 C334.138125,152.418937 335.82,153.068062 337.929375,153.068062 C340.119375,153.068062 341.866875,152.3865 343.134375,151.007062 C344.40375,149.627625 345.03,147.68025 345.03,145.132312 L345.03,126.648 L355.921875,126.648 Z" id="Shape" fill="#7350FF" fill-rule="nonzero"></path>
            <path d="M393.8175,155.518687 C392.61375,157.482375 390.834375,159.040312 388.49625,160.208812 C386.15625,161.377312 383.304375,161.961562 379.96125,161.961562 C374.934375,161.961562 370.783125,160.760625 367.5375,158.342625 C364.275,155.924438 362.5125,152.548875 362.21625,148.215937 L373.76625,148.215937 C373.929375,149.8875 374.540625,151.202062 375.5775,152.159438 C376.61625,153.117 377.934375,153.60375 379.54875,153.60375 C380.949375,153.60375 382.036875,153.230625 382.843125,152.484 C383.65125,151.737562 384.046875,150.731437 384.046875,149.48175 C384.046875,148.362 383.668125,147.42075 382.9425,146.674125 C382.201875,145.927688 381.279375,145.311 380.191875,144.82425 C379.0875,144.353625 377.570625,143.769375 375.628125,143.103938 C372.793125,142.146375 370.486875,141.221438 368.67375,140.328937 C366.8775,139.43625 365.32875,138.105563 364.044375,136.336688 C362.758125,134.567813 362.116875,132.26325 362.116875,129.4395 C362.116875,126.810563 362.791875,124.538438 364.14375,122.6235 C365.49375,120.708562 367.3725,119.247938 369.76125,118.2255 C372.15,117.20325 374.885625,116.700187 377.983125,116.700187 C382.97625,116.700187 386.930625,117.8685 389.88,120.2055 C392.8125,122.542313 394.475625,125.739375 394.854375,129.828937 L383.124375,129.828937 C382.910625,128.3685 382.366875,127.216125 381.51,126.356062 C380.63625,125.496 379.46625,125.073938 377.983125,125.073938 C376.71375,125.073938 375.69375,125.414813 374.9025,126.08025 C374.11125,126.7455 373.7325,127.719188 373.7325,129.017625 C373.7325,130.056187 374.0775,130.948688 374.78625,131.679 C375.478125,132.409312 376.36875,132.993562 377.4225,133.464187 C378.478125,133.9185 380.01,134.50275 381.98625,135.216938 C384.853125,136.174312 387.21,137.115562 389.023125,138.056813 C390.834375,138.998063 392.4,140.361375 393.718125,142.146375 C395.03625,143.931562 395.679375,146.268563 395.679375,149.140875 C395.630625,151.413 395.019375,153.555188 393.8175,155.518687 Z" id="Shape" fill="#7350FF" fill-rule="nonzero"></path>
            <path d="M421.695,152.337375 L421.695,161.522813 L416.818125,161.522813 C412.665,161.522813 409.453125,160.516688 407.145,158.488125 C404.83875,156.475687 403.685625,153.13275 403.685625,148.458938 L403.685625,135.654563 L398.925,135.654563 L398.925,126.663938 L403.685625,126.663938 L403.685625,118.1115 L414.526875,118.1115 L414.526875,126.663938 L421.629375,126.663938 L421.629375,135.654563 L414.526875,135.654563 L414.526875,148.637438 C414.526875,150.016688 414.808125,150.97425 415.38375,151.50975 C415.96125,152.045438 416.915625,152.32125 418.2675,152.32125 L421.695,152.32125 L421.695,152.337375 Z" id="Shape" fill="#7350FF" fill-rule="nonzero"></path>
            <path d="M453.7575,128.3685 C456.526875,129.812812 458.7,131.873812 460.2825,134.584125 C461.865,137.29425 462.65625,140.458875 462.65625,144.077812 C462.65625,147.69675 461.865,150.861375 460.2825,153.5715 C458.7,156.281625 456.526875,158.342625 453.7575,159.786937 C450.99,161.23125 447.84375,161.945437 444.33375,161.945437 C440.82375,161.945437 437.6775,161.23125 434.87625,159.786937 C432.091875,158.342625 429.9,156.281625 428.3175,153.5715 C426.736875,150.861375 425.945625,147.69675 425.945625,144.077812 C425.945625,140.458875 426.736875,137.29425 428.3175,134.584125 C429.9,131.873812 432.091875,129.812812 434.87625,128.3685 C437.660625,126.924187 440.82375,126.210187 444.33375,126.210187 C447.84375,126.210187 450.99,126.9405 453.7575,128.3685 Z M439.11,137.683687 C437.6925,139.160437 436.985625,141.302625 436.985625,144.093937 C436.985625,146.88525 437.6925,149.011312 439.11,150.47175 C440.5275,151.932375 442.273125,152.662687 444.350625,152.662687 C446.42625,152.662687 448.156875,151.932375 449.555625,150.47175 C450.95625,149.011312 451.648125,146.88525 451.648125,144.093937 C451.648125,141.302625 450.95625,139.17675 449.555625,137.683687 C448.156875,136.206937 446.42625,135.460312 444.350625,135.460312 C442.258125,135.460312 440.5275,136.206937 439.11,137.683687 Z" id="Shape" fill="#7350FF" fill-rule="nonzero"></path>
            <path d="M484.389375,128.157187 C486.530625,126.907688 488.83875,126.291 491.341875,126.291 L491.341875,137.71575 L488.229375,137.71575 C485.345625,137.71575 483.12,138.316312 481.539375,139.533375 C479.956875,140.734313 479.165625,142.779188 479.165625,145.651687 L479.165625,161.523188 L468.324375,161.523188 L468.324375,126.648 L479.165625,126.648 L479.165625,133.220438 C480.5175,131.094563 482.248125,129.406875 484.389375,128.157187 Z" id="Shape" fill="#7350FF" fill-rule="nonzero"></path>
            <polygon id="Shape" fill="#7350FF" fill-rule="nonzero" points="504.07875 126.648 512.58 148.020938 520.505625 126.648 532.5 126.648 510.421875 178.125 498.493125 178.125 506.7975 160.192312 491.968125 126.648"></polygon>
            <g id="Group" transform="translate(105.000000, 105.000000)" fill-rule="nonzero" fill="#7350FF">
                <path d="M78.5214375,0 L100.749375,0 C110.68125,0 118.73625,7.9284375 118.73625,17.707125 C118.73625,27.486 110.68125,35.4144375 100.749375,35.4144375 L66.8866875,35.4144375 C63.3879375,35.4144375 60.5341875,32.6184375 60.5341875,29.16075 L60.5341875,17.693625 C60.5341875,7.9284375 68.587875,0 78.5214375,0 Z" id="Shape"></path>
                <path d="M78.5218125,73.125 C88.455,73.125 96.51,65.19675 96.51,55.417875 C96.51,45.639 88.455,37.71075 78.5218125,37.71075 L66.873375,37.71075 C63.374625,37.71075 60.520875,40.5065625 60.520875,43.96425 L60.520875,55.431375 C60.5345625,65.19675 68.5884375,73.125 78.5218125,73.125 Z" id="Shape"></path>
                <path d="M40.228125,0 L18.001125,0 C8.053875,0 0,7.9284375 0,17.707125 C0,27.486 8.053875,35.4144375 17.9874375,35.4144375 L51.862875,35.4144375 C55.361625,35.4144375 58.2155625,32.6184375 58.2155625,29.16075 L58.2155625,17.693625 C58.2155625,7.9284375 50.1616875,0 40.228125,0 Z" id="Shape"></path>
                <path d="M40.228125,73.125 C30.2945625,73.125 22.2406875,65.19675 22.2406875,55.417875 C22.2406875,45.639 30.2945625,37.71075 40.228125,37.71075 L51.862875,37.71075 C55.361625,37.71075 58.215375,40.5065625 58.215375,43.96425 L58.215375,55.431375 C58.215375,65.19675 50.1616875,73.125 40.228125,73.125 Z" id="Shape"></path>
            </g>
            <circle id="Oval" fill="#000000" fill-rule="nonzero" cx="151.875" cy="958.125" r="45"></circle>
            <text id="kuhhhhh" fill="#000000" font-family="Roboto" font-size="52.5" font-weight="100">
                <tspan x="234.375" y="974.81875">$PLACEHOLDER__CREATOR</tspan>
            </text>
            <text id="beta.trustory.io" fill="#ABA7BF" font-family="Roboto" font-size="52.5" font-weight="100">
                <tspan x="1768.125" y="161.069313" text-anchor="end">beta.trustory.io</tspan>
            </text>
            <g id="Group" transform="translate(1693.125000, 896.250000)" fill-rule="nonzero">
                <path d="M4.29,83.308125 C3.586875,80.248125 3.234375,77.071875 3.234375,73.779375 C3.328125,50.04 22.8525,31.17 46.8525,31.633125 C70.21875,32.07375 88.993125,51.084375 88.75875,74.35875 C88.524375,97.1475 69.82125,115.809375 46.78125,116.203125 C40.055625,116.319375 33.680625,114.905625 27.984375,112.28625 C24.586875,110.709375 20.625,110.964375 17.32125,112.726875 C13.921875,114.534375 10.1025,115.438125 6.890625,115.85625 C3.65625,116.319375 1.055625,113.259375 2.109375,110.199375 C6.774375,96.590625 4.29,83.308125 4.29,83.308125 Z" id="Shape" fill="#E4E1F0"></path>
                <path d="M46.850625,31.655625 C35.671875,31.4475 25.475625,35.41125 17.765625,42.1125 C16.569375,55.8825 18.30375,78.43875 39.09375,91.213125 C44.484375,94.528125 48.350625,99.860625 49.546875,106.025625 C50.109375,108.946875 50.296875,112.30875 49.734375,116.086875 C71.390625,114.21 88.546875,96.196875 88.756875,74.38125 C88.99125,51.106875 70.21875,32.09625 46.850625,31.655625 Z" id="Shape" fill="#E4E1F0"></path>
                <path d="M76.768125,0.939375 L76.771875,0.939375 C104.3625,0.405 126.96375,22.14375 127.078125,49.60875 C127.104375,53.368125 126.6825,56.990625 125.896875,60.466875 C125.885625,60.5325 125.870625,60.628125 125.851875,60.751875 C125.805,61.059375 125.739375,61.543125 125.668125,62.175 C125.529375,63.44625 125.38125,65.3025 125.364375,67.55625 C125.32875,72.10125 125.83125,78.028125 127.84875,83.915625 L121.640625,86.04375 L76.768125,0.939375 Z M76.768125,0.939375 L76.85625,98.6325 C84.583125,98.765625 91.933125,97.138125 98.50875,94.11375 L98.5275,94.10625 C99.886875,93.474375 101.679375,93.496875 103.3425,94.38375 L103.34625,94.385625 C107.671875,96.688125 112.325625,97.749375 115.996875,98.2275 C123.82875,99.2775 130.5675,91.80375 127.845,83.904375 L121.640625,86.04375 L76.768125,0.939375 Z M76.768125,0.939375 C49.8825,1.471875 28.15875,23.338125 28.430625,50.29125 L28.430625,50.293125 L76.768125,0.939375 Z M76.768125,0.939375 L28.430625,50.293125 L76.768125,0.939375 Z M121.640625,86.04375 C122.69625,89.10375 120.09375,92.16375 116.859375,91.723125 L119.461875,59.175 C119.461875,59.175 116.9775,72.435 121.640625,86.04375 Z M28.430625,50.293125 C28.7025,76.695 50.323125,98.176875 76.85625,98.6325 L28.430625,50.293125 Z" id="Shape" stroke="#FFFFFF" stroke-width="13.125" fill="#E4E1F0"></path>
                <path d="M64.78125,38.101875 L59.086875,38.101875 C56.368125,38.101875 54.140625,40.280625 54.140625,42.991875 L54.140625,49.738125 C54.140625,52.42875 56.34375,54.63 59.086875,54.63 C59.086875,54.63 63.09375,54.6075 64.921875,58.29375 C65.578125,59.59125 66.140625,61.2375 66.375,63.16125 C66.680625,65.66625 70.00875,66.36 71.32125,64.18125 C73.828125,59.985 75.680625,53.518125 73.149375,44.360625 C72.09375,40.651875 68.671875,38.101875 64.78125,38.101875 Z" id="Shape" fill="#FFFFFF"></path>
                <path d="M91.80375,38.101875 L86.109375,38.101875 C83.390625,38.101875 81.163125,40.280625 81.163125,42.991875 L81.163125,49.738125 C81.163125,52.42875 83.36625,54.63 86.109375,54.63 C86.109375,54.63 90.11625,54.6075 91.944375,58.29375 C92.600625,59.59125 93.163125,61.2375 93.3975,63.16125 C93.703125,65.66625 97.03125,66.36 98.34375,64.18125 C100.850625,59.985 102.703125,53.518125 100.171875,44.360625 C99.11625,40.651875 95.694375,38.101875 91.80375,38.101875 Z" id="Shape" fill="#FFFFFF"></path>
            </g>
        </g>
    </g>
</svg>